<svg width="40" height="40" viewBox="0 0 40 40" fill="none" xmlns="http://www.w3.org/2000/svg">
<rect width="40" height="40" fill="#FFFAEC"/>
<g clip-path="url(#clip0_2183_40)">
<path d="M34.6455 19.3999C27.4981 19.3999 23.9102 19.3999 22.2549 17.7451C20.5996 16.0903 20.5996 12.5024 20.5996 5.35449C20.5996 5.19547 20.5364 5.04295 20.424 4.9305C20.3115 4.81806 20.159 4.75488 20 4.75488C19.841 4.75488 19.6885 4.81806 19.576 4.9305C19.4636 5.04295 19.4004 5.19547 19.4004 5.35449C19.4004 12.5025 19.4004 16.0903 17.7451 17.7451C16.0899 19.3999 12.502 19.3999 5.35449 19.3999C5.19534 19.3999 5.0427 19.4631 4.93016 19.5757C4.81762 19.6882 4.75439 19.8408 4.75439 20C4.75439 20.1592 4.81762 20.3118 4.93016 20.4243C5.0427 20.5369 5.19534 20.6001 5.35449 20.6001C12.502 20.6001 16.0899 20.6001 17.7451 22.2549C19.4004 23.9102 19.4004 27.4981 19.4004 34.6455C19.4004 34.8045 19.4636 34.9571 19.576 35.0695C19.6885 35.182 19.841 35.2451 20 35.2451C20.159 35.2451 20.3115 35.182 20.424 35.0695C20.5364 34.9571 20.5996 34.8045 20.5996 34.6455C20.5996 27.4981 20.5996 23.9102 22.2549 22.2549C23.9102 20.6001 27.4981 20.6001 34.6455 20.6001C34.8047 20.6001 34.9573 20.5369 35.0698 20.4243C35.1824 20.3118 35.2456 20.1592 35.2456 20C35.2456 19.8408 35.1824 19.6882 35.0698 19.5757C34.9573 19.4631 34.8047 19.3999 34.6455 19.3999Z" fill="#0B0F16"/>
</g>
<defs>
<clipPath id="clip0_2183_40">
<rect width="32" height="32" fill="white" transform="translate(4 4)"/>
</clipPath>
</defs>
</svg>
